<svg width="42" height="42" viewBox="0 0 42 42" fill="none" xmlns="http://www.w3.org/2000/svg">
<g clip-path="url(#clip0_675_1033)">
<path d="M21 3.78394C26.6072 3.78394 27.2713 3.80527 29.4856 3.90616C31.5331 3.99968 32.6452 4.34175 33.3852 4.62935C34.3654 5.0103 35.0649 5.46541 35.7997 6.20025C36.5347 6.93509 36.9897 7.63465 37.3706 8.61476C37.6582 9.35484 38.0003 10.4669 38.0938 12.5142C38.1947 14.7287 38.2161 15.3928 38.2161 21C38.2161 26.6073 38.1947 27.2715 38.0938 29.4858C38.0003 31.5333 37.6582 32.6452 37.3706 33.3852C36.9897 34.3654 36.5346 35.0651 35.7997 35.7999C35.0649 36.5347 34.3654 36.9899 33.3852 37.3706C32.6452 37.6582 31.5331 38.0005 29.4856 38.0938C27.2716 38.1949 26.6075 38.2162 21 38.2162C15.3923 38.2162 14.7282 38.1949 12.5142 38.0938C10.4667 38.0003 9.35484 37.6582 8.61476 37.3706C7.63465 36.9899 6.93492 36.5347 6.20009 35.7999C5.46525 35.0649 5.01014 34.3654 4.62935 33.3852C4.34175 32.6453 3.99952 31.5333 3.90616 29.4858C3.8051 27.2715 3.78377 26.6073 3.78377 21C3.78377 15.3928 3.8051 14.7287 3.90616 12.5144C3.99968 10.4669 4.34175 9.35484 4.62935 8.61476C5.01014 7.63465 5.46525 6.93509 6.20009 6.20025C6.93509 5.46525 7.63465 5.0103 8.61476 4.62935C9.35468 4.34175 10.4667 3.99968 12.5142 3.90616C14.7285 3.80527 15.3927 3.78394 21 3.78394ZM21 0C15.2967 0 14.5815 0.0241172 12.3418 0.126328C10.1064 0.228375 8.57981 0.583406 7.24418 1.1025C5.8631 1.63915 4.69202 2.35725 3.52455 3.52472C2.35709 4.69219 1.63915 5.86327 1.1025 7.24418C0.583242 8.57998 0.228375 10.1066 0.126328 12.3418C0.0241172 14.5815 0 15.2967 0 21C0 26.7033 0.0241172 27.4185 0.126328 29.6582C0.228375 31.8936 0.583242 33.4202 1.1025 34.7558C1.63898 36.1367 2.35709 37.308 3.52455 38.4754C4.69202 39.6429 5.8631 40.3609 7.24418 40.8975C8.57998 41.4168 10.1064 41.7716 12.3416 41.8737C14.5815 41.9759 15.2967 42 21 42C26.7033 42 27.4185 41.9759 29.6582 41.8737C31.8934 41.7716 33.42 41.4168 34.7557 40.8975C36.1367 40.361 37.3078 39.6429 38.4753 38.4754C39.6427 37.308 40.3609 36.1369 40.8975 34.7558C41.4166 33.42 41.7716 31.8936 41.8737 29.6584C41.9759 27.4185 42 26.7033 42 21C42 15.2967 41.9759 14.5815 41.8737 12.3418C41.7716 10.1066 41.4166 8.57998 40.8975 7.24434C40.3609 5.86327 39.6427 4.69219 38.4753 3.52472C37.3078 2.35725 36.1367 1.63898 34.7558 1.1025C33.42 0.583406 31.8934 0.228375 29.6582 0.126328C27.4185 0.0241172 26.7033 0 21 0ZM21 10.2162C15.0442 10.2162 10.2162 15.0445 10.2162 21C10.2162 26.9558 15.0442 31.7838 21 31.7838C26.9556 31.7838 31.7838 26.9558 31.7838 21C31.7838 15.0444 26.9556 10.2162 21 10.2162ZM21 28.0001C17.134 28.0001 13.9999 24.866 13.9999 21C13.9999 17.134 17.134 13.9999 21 13.9999C24.866 13.9999 28.0001 17.134 28.0001 21C28.0001 24.866 24.866 28.0001 21 28.0001ZM34.7297 9.7901C34.7297 11.182 33.6016 12.3101 32.2097 12.3101C30.818 12.3101 29.6897 11.182 29.6897 9.7901C29.6897 8.39836 30.818 7.2701 32.2097 7.2701C33.6016 7.2701 34.7297 8.39836 34.7297 9.7901Z" fill="#0A0A08"/>
</g>
<defs>
<clipPath id="clip0_675_1033">
<rect width="42" height="42" fill="white"/>
</clipPath>
</defs>
</svg>
